<?xml version="1.0" standalone="no"?>
<!DOCTYPE svg PUBLIC "-//W3C//DTD SVG 20010904//EN"
 "http://www.w3.org/TR/2001/REC-SVG-20010904/DTD/svg10.dtd">
<svg version="1.0" xmlns="http://www.w3.org/2000/svg"
 width="720.000000pt" height="721.000000pt" viewBox="0 0 720.000000 721.000000"
 preserveAspectRatio="xMidYMid meet">
<metadata>
Created by potrace 1.16, written by Peter Selinger 2001-2019
</metadata>
<g transform="translate(0.000000,721.000000) scale(0.100000,-0.100000)"
fill="#000000" stroke="none">
<path d="M3469 6709 c-93 -13 -237 -58 -313 -96 -48 -24 -94 -59 -145 -109
-40 -41 -81 -74 -90 -74 -33 0 -163 -50 -239 -91 -108 -60 -175 -110 -267
-203 -169 -170 -294 -406 -395 -746 -17 -58 -52 -166 -77 -240 -25 -74 -57
-175 -73 -225 -129 -423 -162 -533 -184 -623 -41 -158 -84 -433 -111 -696 -21
-204 -23 -255 -14 -339 12 -116 43 -221 99 -332 22 -44 40 -92 40 -108 0 -15
-23 -96 -50 -180 -100 -303 -103 -482 -11 -665 31 -61 31 -62 16 -117 -28
-110 -57 -384 -52 -495 13 -272 143 -518 340 -644 64 -41 183 -76 258 -76 75
0 190 28 216 52 29 27 29 35 -3 127 -24 70 -25 80 -15 144 15 88 57 180 109
237 l42 45 59 -62 c40 -42 67 -63 83 -63 13 0 110 41 217 90 107 50 199 90
206 90 20 0 121 -319 200 -635 46 -182 65 -229 94 -233 45 -7 67 8 136 95 39
47 104 127 146 177 133 160 296 362 353 438 85 114 106 136 113 118 12 -30
148 -161 208 -200 113 -74 281 -117 408 -104 111 11 139 61 73 128 -42 42 -53
89 -37 162 18 77 63 133 127 154 54 19 179 87 230 125 17 13 56 47 88 75 l56
52 61 -56 c169 -157 395 -186 588 -75 69 40 186 158 230 232 64 108 106 238
117 358 6 59 4 69 -15 88 -25 25 -65 27 -83 6 -38 -46 -72 -70 -156 -113 -85
-42 -100 -46 -165 -47 -55 0 -80 5 -107 20 -57 34 -97 95 -114 177 -8 40 -51
253 -96 473 -44 220 -101 482 -126 583 -70 285 -98 495 -139 1067 -32 451 -40
523 -76 680 -124 554 -331 956 -650 1260 -210 201 -520 360 -765 395 -86 12
-263 11 -345 -1z m-329 -963 c0 -7 9 -21 21 -32 19 -17 43 -19 254 -24 l232
-5 59 -50 c158 -133 311 -310 421 -488 36 -59 98 -195 92 -202 -3 -2 -45 -9
-93 -15 -49 -6 -137 -24 -195 -40 -214 -58 -288 -109 -243 -169 27 -36 50 -37
134 -2 121 50 270 84 377 85 l95 1 34 -98 c18 -54 32 -100 30 -102 -2 -2 -27
8 -56 22 -42 20 -72 27 -147 31 -153 8 -219 -19 -352 -145 -67 -62 -79 -96
-47 -127 27 -27 58 -18 116 33 106 92 128 102 128 59 0 -11 13 -33 29 -49 55
-54 143 -33 176 43 10 24 20 44 21 46 1 2 26 -9 55 -23 38 -20 62 -26 86 -22
26 5 33 2 33 -11 0 -9 16 -62 35 -116 39 -110 37 -115 -25 -116 -108 -1 -494
-61 -604 -95 -68 -21 -122 -20 -131 3 -4 9 -11 59 -16 110 -10 103 -33 194
-54 212 -8 6 -26 10 -42 8 -35 -4 -41 -31 -19 -95 9 -26 16 -67 16 -92 0 -59
24 -170 44 -210 24 -45 74 -57 162 -38 255 56 327 69 474 86 91 11 189 21 218
23 l53 3 22 -55 c25 -60 106 -213 144 -271 l24 -36 -16 -104 c-20 -124 -63
-307 -105 -440 -47 -152 -148 -274 -392 -476 -214 -176 -328 -232 -489 -241
-184 -9 -323 54 -623 285 -140 107 -228 194 -281 278 -43 66 -129 255 -160
351 -14 41 -60 146 -103 232 -76 151 -107 235 -131 350 -17 80 -16 84 21 80
30 -3 32 -6 45 -62 24 -108 48 -118 228 -100 170 18 285 38 420 76 143 40 147
42 143 81 -4 44 -33 46 -166 8 -59 -16 -145 -37 -192 -45 -104 -19 -323 -37
-331 -28 -6 6 -37 124 -55 209 -11 54 -79 48 -91 -8 -4 -22 -11 -29 -28 -29
-24 0 -18 -33 -70 390 -16 132 -7 202 42 324 72 179 190 374 300 496 97 107
221 187 274 176 50 -10 74 8 129 98 48 78 70 97 70 62z m1216 -3137 c-52 -180
-82 -264 -165 -452 -33 -76 -75 -182 -93 -235 -32 -94 -33 -102 -33 -262 0
-129 4 -175 17 -208 l16 -43 -67 -77 c-36 -42 -111 -133 -166 -202 -55 -68
-156 -192 -225 -275 -69 -83 -139 -168 -155 -188 -34 -45 -37 -41 -54 62 -6
40 -20 99 -30 130 -11 31 -40 130 -66 221 -64 227 -97 309 -143 354 -35 35
-184 134 -226 149 -21 8 -23 3 50 92 22 28 60 78 82 112 l42 62 0 370 c0 204
3 371 7 371 3 0 42 -23 86 -51 156 -100 293 -148 422 -149 92 0 223 25 290 56
106 48 264 160 398 282 27 24 50 42 52 40 3 -2 -15 -74 -39 -159z m-1403
-1163 l62 -35 -100 -47 c-55 -25 -123 -56 -152 -69 l-51 -23 -33 34 c-18 18
-31 35 -28 37 2 2 19 14 38 27 18 12 58 45 89 72 66 58 78 58 175 4z"/>
<path d="M2750 4699 c-78 -13 -226 -64 -286 -99 -59 -33 -75 -67 -49 -106 21
-33 62 -31 136 6 76 39 225 78 309 82 36 1 99 -1 141 -5 86 -10 109 1 109 52
0 57 -64 81 -210 80 -52 -1 -120 -5 -150 -10z"/>
<path d="M3207 4502 c-22 -24 -21 -43 5 -115 20 -55 20 -60 5 -69 -10 -5 -17
-21 -17 -39 0 -24 6 -32 29 -40 33 -12 33 -14 51 -178 6 -52 10 -156 9 -232
-1 -154 6 -177 66 -227 50 -41 152 -92 185 -92 33 0 60 28 60 61 0 35 -8 43
-75 77 -111 55 -107 49 -106 192 2 112 -8 245 -25 354 l-6 39 33 -7 c65 -13
81 -11 96 10 13 20 12 24 -9 48 -17 20 -39 30 -85 39 l-63 11 -31 79 c-41 101
-83 132 -122 89z"/>
<path d="M2740 4461 c-14 -4 -47 -18 -73 -31 -106 -50 -155 -175 -81 -208 33
-15 79 7 88 42 5 22 60 66 83 66 5 0 15 -16 22 -35 15 -42 68 -85 105 -85 41
0 84 30 97 67 12 38 16 39 63 16 44 -20 82 -7 92 32 11 43 -13 71 -89 106 -64
29 -82 33 -177 36 -58 1 -116 -1 -130 -6z"/>
<path d="M3930 3327 c-152 -51 -278 -76 -430 -83 -90 -4 -144 -2 -191 8 -76
16 -104 10 -121 -27 -19 -43 2 -71 69 -92 93 -29 322 -24 484 10 137 29 324
90 352 114 33 31 15 90 -33 105 -8 2 -67 -13 -130 -35z"/>
</g>
</svg>
